OpenSim_Sub02_CSBaseline_RCS.mot
version=1
nRows=72
nColumns=11
inDegrees=no
endheader
time	Top_Thigh	Med_Thigh	Bot_Thigh	Top_Shank	2nd_Top_Shank	2nd_Bot_Shank	Bot_Shank	BNOx	BNOy	BNOZ
52.92000000	12636.25286096	13096.15993069	12933.14658964	1117.92314989	1209.54317546	995.40407396	995.57815432	175.78899669	-85.66007941	-255.66000526
52.93000000	12632.40642141	13081.73155683	12887.88473954	1118.12528139	1210.19739859	995.97711555	996.25381721	192.20618333	-85.43325593	-260.69407133
52.94000000	12635.24235789	13080.98102380	12856.10688554	1118.34160093	1210.95865986	996.68120373	996.89799709	209.77651380	-85.17699151	-262.51382833
52.95000000	12642.76105679	13090.35090387	12835.73392752	1118.57075450	1211.83396869	997.52427279	997.50609278	228.52588432	-84.89789393	-260.83614917
52.96000000	12652.96290448	13106.28376927	12824.68676537	1118.81138809	1212.83033447	998.51425703	998.07350314	248.48019110	-84.60257099	-255.37790674
52.97000000	12663.84828734	13125.22219225	12820.88629897	1119.06214769	1213.95476662	999.65909076	998.59562700	269.66533035	-84.29763046	-245.85597394
52.98000000	12673.41759175	13143.60874508	12822.25342820	1119.32167928	1215.21427453	1000.96670828	999.06786319	292.10719828	-83.98968013	-231.98722367
52.99000000	12679.67120407	13157.88599999	12826.70905295	1119.58862885	1216.61586761	1002.44504389	999.48561055	315.83169111	-83.68532778	-213.48852884
53	12680.64074820	13164.54788729	12832.19749764	1119.86164238	1218.16655527	1004.10203189	999.84426792	340.86470505	-83.39118120	-190.07676234
53.01000000	12675.57220606	13162.08488129	12837.57371576	1120.13906126	1219.87057122	1005.94331665	1000.13939074	367.19490352	-83.11359216	-161.50188399
53.02000000	12665.28905366	13151.58103759	12842.87560017	1120.41222110	1221.66830839	1007.92187433	1000.37013620	393.95459576	-82.85302442	-128.27485264
53.03000000	12650.72019360	13134.29374520	12848.22010153	1120.66545170	1223.43631892	1009.93801283	1000.53926322	419.41973686	-82.60405371	-91.66762616
53.04000000	12632.79452844	13111.48039313	12853.72417054	1120.88277828	1225.04837926	1011.88975012	1000.64968735	441.82904909	-82.36099977	-52.98524933
53.05000000	12612.44096079	13084.39837039	12859.50475788	1121.04822605	1226.37826585	1013.67510420	1000.70432412	459.42125474	-82.11818231	-13.53276695
53.06000000	12590.58839323	13054.30506599	12865.67881422	1121.14582022	1227.29975515	1015.19209305	1000.70608906	470.43507610	-81.86992107	25.38477618
53.07000000	12568.16572834	13022.45786893	12872.36329024	1121.15958601	1227.68662361	1016.33873465	1000.65789770	473.10923543	-81.61053577	62.46233530
53.08000000	12546.10186871	12990.11416822	12879.67513664	1121.07354863	1227.41264767	1017.01304698	1000.56266559	465.68245504	-81.33434614	96.39486559
53.09000000	12525.32571693	12958.53135288	12887.73130407	1120.87173329	1226.35160378	1017.11304803	1000.42330825	446.39345719	-81.03567192	125.87732228
53.10000000	12506.76617559	12928.96681190	12896.64874324	1120.53816521	1224.37726840	1016.53675578	1000.24274123	413.48096418	-80.70883283	149.60466058
53.11000000	12491.35214727	12902.67793431	12906.54440482	1120.05686960	1221.36341798	1015.18218821	1000.02388005	365.18369829	-80.34814860	166.27183569
53.12000000	12479.99384203	12880.90201499	12917.51941320	1119.42539980	1217.27763162	1013.01545454	999.77823098	300.88168209	-79.95140892	174.97767671
53.13000000	12472.87479817	12864.09519016	12929.05964605	1118.71447976	1212.59484630	1010.37095441	999.56376568	226.12797939	-79.53517180	177.00547738
53.14000000	12469.23458164	12851.69884329	12939.85175376	1118.01945871	1207.96074818	1007.70703407	999.45409354	148.55316494	-79.12231165	174.37370378
53.15000000	12468.24967111	12843.08654023	12948.52897303	1117.43570442	1204.02115204	1005.48213316	999.52283573	75.78937909	-78.73570760	169.10137602
53.16000000	12469.09654529	12837.63184680	12953.72454053	1117.05858470	1201.42187271	1004.15469131	999.84361341	15.46876216	-78.39823882	163.20751419
53.17000000	12470.95168286	12834.70832885	12954.07169297	1116.97387074	1200.74454775	1004.13712745	1000.47928286	-25.44111841	-78.13037424	158.57491452
53.18000000	12473.00793039	12833.69738849	12948.28515208	1117.16826259	1201.90827365	1005.36676022	1001.38156773	-46.83348997	-77.92770056	155.68005037
53.19000000	12474.83459595	12834.16066239	12936.95379592	1117.57001356	1204.44128319	1007.50062463	1002.43662936	-52.64908067	-77.77112529	154.16974010
53.20000000	12476.37744911	12835.84002177	12922.54065882	1118.10662157	1207.86675730	1010.19213303	1003.52978173	-46.88093198	-77.64136621	153.68007887
53.21000000	12477.59862729	12838.48517412	12907.59026021	1118.70558454	1211.70787693	1013.09469780	1004.54633880	-33.52208536	-77.51914111	153.84716187
53.22000000	12478.46026796	12841.84582693	12894.64711947	1119.29440039	1215.48782301	1015.86173131	1005.37161455	-16.56558228	-77.38516778	154.30708428
53.23000000	12478.92450854	12845.67168771	12886.25575602	1119.80056703	1218.72977646	1018.14664592	1005.89092294	-0.00446420	-77.22016400	154.69594128
53.24000000	12478.95348649	12849.71246395	12884.96068927	1120.15385732	1220.97210424	1019.61424825	1005.99427242	12.27710711	-77.00553645	154.66000218
53.25000000	12478.50933926	12853.71786314	12893.30643860	1120.33636779	1222.10245133	1020.19141269	1005.67964403	18.89920314	-76.73853633	154.07954109
53.26000000	12477.55923262	12857.44293682	12913.77742586	1120.38251860	1222.35774081	1020.06708141	1005.05299148	20.98612861	-76.43225935	153.06883698
53.27000000	12476.26580936	12860.85048566	12946.52177971	1120.32900488	1221.99008175	1019.44159081	1004.22496292	19.77106798	-76.10049013	151.75234291
53.28000000	12475.04564375	12864.17318379	12988.65270132	1120.21252175	1221.25158322	1018.51527730	1003.30620651	16.48720566	-75.75701327	150.25451196
53.29000000	12474.33228073	12867.66174147	13037.08056257	1120.06976434	1220.39435429	1017.48847731	1002.40737039	12.36772611	-75.41561339	148.69979721
53.30000000	12474.55926525	12871.56686896	13088.71573535	1119.93661627	1219.66465794	1016.55690685	1001.63641829	8.61832737	-75.08972856	147.20983232
53.31000000	12476.16014226	12876.13927649	13140.46859153	1119.83029680	1219.17429742	1015.81001327	1001.03957159	5.81252084	-74.78482676	145.84140445
53.32000000	12479.56845671	12881.62967431	13189.24950298	1119.74936083	1218.90061620	1015.23097520	1000.60130938	3.89163126	-74.49840584	144.58645424
53.33000000	12485.21775354	12888.28877269	13231.96884157	1119.69155175	1218.81511170	1014.79835090	1000.30342629	2.76949697	-74.22761711	143.43410294
53.34000000	12493.54157769	12896.36728185	13265.53697919	1119.65461297	1218.88928131	1014.49069864	1000.12771695	2.35995633	-73.96961192	142.37347179
53.35000000	12504.95926734	12906.11402768	13286.93115526	1119.63628788	1219.09462243	1014.28657668	1000.05597600	2.57684770	-73.72154158	141.39368202
53.36000000	12519.33787195	12917.70458056	13295.72808484	1119.63431988	1219.40263247	1014.16454327	1000.06999807	3.33400942	-73.48055741	140.48385489
53.37000000	12535.82699844	12931.21934946	13294.88129382	1119.64645238	1219.78480884	1014.10315668	1000.15157780	4.54527985	-73.24381075	139.63311161
53.38000000	12553.52830586	12946.73238353	13287.56998605	1119.67042876	1220.21264893	1014.08097516	1000.28250981	6.12449734	-73.00845292	138.83057344
53.39000000	12571.54345322	12964.31773192	13276.97336537	1119.70399244	1220.65765015	1014.07655698	1000.44458875	7.98550025	-72.77163525	138.06536162
53.40000000	12588.97409957	12984.04944380	13266.27063562	1119.74488680	1221.09130990	1014.06846040	1000.61960925	10.04212694	-72.53050905	137.32659738
53.41000000	12604.92190393	13006.00156832	13258.64100064	1119.79085525	1221.48512558	1014.03524368	1000.78936593	12.20821574	-72.28222566	136.60340196
53.42000000	12618.48852534	13030.24815465	13257.26366428	1119.83964119	1221.81059461	1013.95546507	1000.93565344	14.39760502	-72.02393639	135.88489660
53.43000000	12628.77562283	13056.86325192	13265.31783037	1119.88898801	1222.03921438	1013.80768284	1001.04026641	16.52413314	-71.75279258	135.16020255
53.44000000	12634.90768705	13085.90805259	13285.91519316	1119.93663912	1222.14248229	1013.57045525	1001.08499947	18.50163843	-71.46594555	134.41844104
53.45000000	12636.89678790	13116.94394380	13319.54301126	1119.98033791	1222.09189575	1013.22234055	1001.05164726	20.24395927	-71.16054663	133.64873331
53.46000000	12635.90799211	13148.88304800	13363.27930858	1120.01777272	1221.86113532	1012.74241502	1000.92333650	21.66886948	-70.83380091	132.84008829
53.47000000	12633.18342314	13180.59409616	13413.97426414	1120.04536529	1221.47409421	1012.12166899	1000.71383202	22.78465914	-70.48415015	131.97893180
53.48000000	12629.96520443	13210.94581927	13468.47805694	1120.05827082	1221.00487825	1011.36300689	1000.46753674	23.69013453	-70.11127278	131.04910654
53.49000000	12627.49545945	13238.80694831	13523.64086599	1120.05158941	1220.52977646	1010.46985112	1000.23018569	24.48803742	-69.71490100	130.03434290
53.50000000	12627.01631164	13263.04621426	13576.31287031	1120.02042118	1220.12507783	1009.44562412	1000.04751389	25.28110958	-69.29476700	128.91837128
53.51000000	12629.76988446	13282.53234810	13623.34424892	1119.96087320	1219.86280739	1008.29599685	999.96293830	26.16804018	-68.85041608	127.68600140
53.52000000	12636.99830135	13296.13408082	13661.58518081	1119.88411977	1219.75118837	1007.06028503	999.98519095	27.18687918	-68.37859666	126.33819310
53.53000000	12649.91120653	13302.76326383	13687.94899626	1119.81293396	1219.74932929	1005.80370424	1000.09630332	28.32899642	-67.87390416	124.88833858
53.54000000	12668.45561337	13303.00805536	13701.80403025	1119.77038720	1219.81507522	1004.59213627	1000.27762007	29.58456094	-67.33087861	123.35014984
53.55000000	12690.93833319	13299.63419548	13705.70775575	1119.77955091	1219.90627127	1003.49146292	1000.51048586	30.94374177	-66.74406004	121.73733891
53.56000000	12715.55655982	13295.55295572	13702.43078118	1119.86349653	1219.98076253	1002.56756597	1000.77624535	32.39670798	-66.10798849	120.06361778
53.57000000	12740.50748709	13293.67560762	13694.74371497	1120.04516876	1219.99644062	1001.88612624	1001.05620562	33.93364211	-65.41721112	118.34269531
53.58000000	12763.98830885	13296.91342270	13685.41716554	1120.32064688	1219.92105894	1001.47021446	1001.32371091	35.54759377	-64.66778736	116.58761335
53.59000000	12784.19621893	13308.17767250	13677.22174133	1120.62606981	1219.74437385	1001.24783266	1001.53433927	37.23800921	-63.85915074	114.80992553
53.60000000	12799.35989202	13330.31809197	13672.88679073	1120.88946619	1219.45911885	1001.13411947	1001.64126484	39.00520023	-62.99119129	113.02098411
53.61000000	12808.93182127	13363.79218158	13673.53767915	1121.03886462	1219.05802743	1001.04421350	1001.59766180	40.84947859	-62.06379907	111.23214136
53.62000000	12813.95428328	13405.94984461	13678.21614133	1121.00229373	1218.53383310	1000.89325338	1001.35670429	42.77115609	-61.07686412	109.45474953
53.63000000	12815.57580256	13453.93329836	13685.82465946	1120.70778212	1217.87926936	1000.59637772	1000.87156648	44.77054451	-60.03027648	107.70016089
